<svg width="608" height="378" viewBox="0 0 608 378" fill="none" xmlns="http://www.w3.org/2000/svg">
<path fill-rule="evenodd" clip-rule="evenodd" d="M552.776 72.4519C520.753 87.6177 479.299 94.5 441.5 94.5C366.287 94.5 331.5 148.765 331.5 188.5C331.5 208.612 325.208 232.152 301.432 250.645C277.681 269.118 236.55 282.5 167 282.5C56.0259 282.5 10.9159 346.184 1.47828 377.146L0.521729 376.854C10.0841 345.483 55.5741 281.5 167 281.5C236.45 281.5 277.319 268.132 300.818 249.855C324.292 231.598 330.5 208.388 330.5 188.5C330.5 148.235 365.713 93.5 441.5 93.5C479.201 93.5 520.497 86.6323 552.349 71.5481C584.202 56.4627 606.5 33.2231 606.5 0.5H607.5C607.5 33.7769 584.798 57.2873 552.776 72.4519Z" fill="white"/>
</svg>
